# xmcd
# Track frame offsets:
# 150
# 19569
# 32866
# 46170
# 62348
# 75573
# 92677
# 106644
# 124580
# 138169
# 151459
# 170016
# 184496
# 202522
#
# Disc length: 2924 seconds
# Revision: 0
# Processed by: cddbd v1.5.2PL0 Copyright (c) Steve Scherf et al.
# Submitted via: VisiTrax 2.10.0.248 - For more info visit www.synapsa.com
#
DISCID=a20b6a0e
DTITLE=Various Artist - Mr Music Country 01-07
DYEAR=2007
DGENRE=Country
TTITLE0=Jamey Johnson - Flying Silver Eagle
TTITLE1=Zachary Hunter and Alyssa Bonagura - Those Aren't Tears (In My Eyes)
TTITLE2=Merle Haggard and George Jones - Things Have Gone To Pieces
TTITLE3=Gretchen Wilson - Not Bad For a bartender
TTITLE4=Paul Lopez - I Don't Want You To Go (But I Need You To Leave)
TTITLE5=Billy Yates and George Jones - Choices
TTITLE6=Martina McBride - Heartaches By the Number
TTITLE7=Alan Jackson - Where Do I Go From Here (a Trucker's Song)
TTITLE8=Christine Mims - Invitation To The Blues
TTITLE9=Brian Burns - Never Goin' Back To Mexico
TTITLE10=Karley Houston - Sorrowful Angels
TTITLE11=Mark Chesnutt - Goodbye Comes Hard For Me
TTITLE12=Marty Robbins and Michael Martin Murphy - Big Iron
TTITLE13=Patty Loveless - When I Reach The Place I'm Going
EXTD=
EXTT0=
EXTT1=
EXTT2=
EXTT3=
EXTT4=
EXTT5=
EXTT6=
EXTT7=
EXTT8=
EXTT9=
EXTT10=
EXTT11=
EXTT12=
EXTT13=
PLAYORDER=
